{
  "accessors": [
    {
      "bufferView": 2,
      "componentType": 5126,
      "count": 3263,
      "max": [
        48.73706817626953,
        127.6282730102539,
        71.4728775024414
      ],
      "min": [
        -48.73912048339844,
        -127.11811065673828,
        0.14116699993610382
      ],
      "type": "VEC3"
    },
    {
      "bufferView": 2,
      "byteOffset": 39156,
      "componentType": 5126,
      "count": 3263,
      "max": [
        1.0,
        1.0,
        1.0
      ],
      "min": [
        -1.0,
        -1.0,
        -1.0
      ],
      "type": "VEC3"
    },
    {
      "bufferView": 3,
      "componentType": 5126,
      "count": 3263,
      "max": [
        1.0,
        1.0,
        1.0,
        1.0
      ],
      "min": [
        -1.0,
        -1.0,
        -1.0,
        -1.0
      ],
      "type": "VEC4"
    },
    {
      "bufferView": 1,
      "componentType": 5126,
      "count": 3263,
      "max": [
        0.9979999661445618,
        0.9972242116928101
      ],
      "min": [
        0.0020000000949949026,
        0.0020000000949949026
      ],
      "type": "VEC2"
    },
    {
      "bufferView": 0,
      "componentType": 5125,
      "count": 9036,
      "type": "SCALAR"
    },
    {
      "bufferView": 2,
      "byteOffset": 78312,
      "componentType": 5126,
      "count": 62,
      "max": [
        37.84086227416992,
        67.61944580078125,
        67.98445129394531
      ],
      "min": [
        -37.84291458129883,
        -44.17750549316406,
        46.32971954345703
      ],
      "type": "VEC3"
    },
    {
      "bufferView": 2,
      "byteOffset": 79056,
      "componentType": 5126,
      "count": 62,
      "max": [
        0.9672296643257141,
        0.6483721137046814,
        0.8036762475967407
      ],
      "min": [
        -0.9672296643257141,
        -0.6470019221305847,
        0.028203556314110756
      ],
      "type": "VEC3"
    },
    {
      "bufferView": 3,
      "byteOffset": 52208,
      "componentType": 5126,
      "count": 62,
      "max": [
        0.29588064551353455,
        0.9999986290931702,
        0.6509429812431335,
        1.0
      ],
      "min": [
        -0.00282689044252038,
        -0.9999985694885254,
        -0.653146505355835,
        1.0
      ],
      "type": "VEC4"
    },
    {
      "bufferView": 1,
      "byteOffset": 26104,
      "componentType": 5126,
      "count": 62,
      "max": [
        0.9000782370567322,
        0.9333345890045166
      ],
      "min": [
        0.1443253457546234,
        0.020336896181106567
      ],
      "type": "VEC2"
    },
    {
      "bufferView": 1,
      "byteOffset": 26600,
      "componentType": 5126,
      "count": 62,
      "max": [
        0.9000782370567322,
        0.9333345890045166
      ],
      "min": [
        0.1443253457546234,
        0.020336896181106567
      ],
      "type": "VEC2"
    },
    {
      "bufferView": 0,
      "byteOffset": 36144,
      "componentType": 5125,
      "count": 150,
      "type": "SCALAR"
    },
    {
      "bufferView": 2,
      "byteOffset": 79800,
      "componentType": 5126,
      "count": 4,
      "max": [
        77.56196594238281,
        163.397216796875,
        0.0
      ],
      "min": [
        -77.56196594238281,
        -163.397216796875,
        0.0
      ],
      "type": "VEC3"
    },
    {
      "bufferView": 2,
      "byteOffset": 79848,
      "componentType": 5126,
      "count": 4,
      "max": [
        0.0,
        0.0,
        1.0
      ],
      "min": [
        0.0,
        0.0,
        1.0
      ],
      "type": "VEC3"
    },
    {
      "bufferView": 1,
      "byteOffset": 27096,
      "componentType": 5126,
      "count": 4,
      "max": [
        1.0,
        1.0
      ],
      "min": [
        0.0,
        0.0
      ],
      "type": "VEC2"
    },
    {
      "bufferView": 0,
      "byteOffset": 36744,
      "componentType": 5125,
      "count": 6,
      "type": "SCALAR"
    }
  ],
  "asset": {
    "extras": {
      "author": "Renafox (https://sketchfab.com/kryik1023)",
      "license": "CC-BY-NC-4.0 (http://creativecommons.org/licenses/by-nc/4.0/)",
      "source": "https://sketchfab.com/3d-models/1978-sedan-c2c00ad1e8ed4e67ba9dd3f719f0b4ca",
      "title": "1978 Sedan"
    },
    "generator": "Sketchfab-12.68.0",
    "version": "2.0"
  },
  "bufferViews": [
    {
      "buffer": 0,
      "byteLength": 36768,
      "name": "floatBufferViews",
      "target": 34963
    },
    {
      "buffer": 0,
      "byteLength": 27128,
      "byteOffset": 36768,
      "byteStride": 8,
      "name": "floatBufferViews",
      "target": 34962
    },
    {
      "buffer": 0,
      "byteLength": 79896,
      "byteOffset": 63896,
      "byteStride": 12,
      "name": "floatBufferViews",
      "target": 34962
    },
    {
      "buffer": 0,
      "byteLength": 53200,
      "byteOffset": 143792,
      "byteStride": 16,
      "name": "floatBufferViews",
      "target": 34962
    }
  ],
  "buffers": [
    {
      "byteLength": 196992,
      "uri": "scene.bin"
    }
  ],
  "images": [
    {
      "uri": "textures/RootNode_baseColor.png"
    },
    {
      "uri": "textures/Material_33_baseColor.png"
    },
    {
      "uri": "textures/Material_33_metallicRoughness.png"
    },
    {
      "uri": "textures/Material_33_emissive.png"
    },
    {
      "uri": "textures/Material_33_normal.png"
    },
    {
      "uri": "textures/Material_34_baseColor.png"
    }
  ],
  "materials": [
    {
      "alphaMode": "BLEND",
      "doubleSided": true,
      "name": "RootNode",
      "pbrMetallicRoughness": {
        "baseColorTexture": {
          "index": 0
        },
        "metallicFactor": 0.0
      }
    },
    {
      "doubleSided": true,
      "emissiveFactor": [
        1.0,
        1.0,
        1.0
      ],
      "emissiveTexture": {
        "index": 3
      },
      "name": "Material_33",
      "normalTexture": {
        "index": 4
      },
      "occlusionTexture": {
        "index": 2
      },
      "pbrMetallicRoughness": {
        "baseColorTexture": {
          "index": 1
        },
        "metallicRoughnessTexture": {
          "index": 2
        }
      }
    },
    {
      "alphaMode": "BLEND",
      "doubleSided": true,
      "name": "Material_34",
      "normalTexture": {
        "index": 4
      },
      "occlusionTexture": {
        "index": 2
      },
      "pbrMetallicRoughness": {
        "baseColorTexture": {
          "index": 5
        },
        "metallicRoughnessTexture": {
          "index": 2
        }
      }
    }
  ],
  "meshes": [
    {
      "name": "Object001_Material #33_0",
      "primitives": [
        {
          "attributes": {
            "NORMAL": 1,
            "POSITION": 0,
            "TANGENT": 2,
            "TEXCOORD_0": 3
          },
          "indices": 4,
          "material": 1,
          "mode": 4
        }
      ]
    },
    {
      "name": "Object002_Material #34_0",
      "primitives": [
        {
          "attributes": {
            "NORMAL": 6,
            "POSITION": 5,
            "TANGENT": 7,
            "TEXCOORD_0": 8,
            "TEXCOORD_1": 9
          },
          "indices": 10,
          "material": 2,
          "mode": 4
        }
      ]
    },
    {
      "name": "Plane001__0",
      "primitives": [
        {
          "attributes": {
            "NORMAL": 12,
            "POSITION": 11,
            "TEXCOORD_0": 13
          },
          "indices": 14,
          "material": 0,
          "mode": 4
        }
      ]
    }
  ],
  "nodes": [
    {
      "children": [
        1
      ],
      "matrix": [
        -1.0,
        -9.860761315262648e-32,
        4.440892098500626e-16,
        0.0,
        4.440892098500626e-16,
        -2.220446049250313e-16,
        1.0,
        0.0,
        0.0,
        1.0,
        2.220446049250313e-16,
        0.0,
        0.972472608089447,
        -3.4655961284171593e-15,
        15.607657432556152,
        1.0
      ],
      "name": "Sketchfab_model"
    },
    {
      "children": [
        2
      ],
      "matrix": [
        1.0,
        0.0,
        0.0,
        0.0,
        0.0,
        0.0,
        1.0,
        0.0,
        0.0,
        -1.0,
        0.0,
        0.0,
        0.0,
        0.0,
        0.0,
        1.0
      ],
      "name": "monacofinal.FBX"
    },
    {
      "children": [
        3,
        5,
        7
      ],
      "name": "RootNode"
    },
    {
      "children": [
        4
      ],
      "matrix": [
        1.0,
        0.0,
        0.0,
        0.0,
        0.0,
        2.220446049250313e-16,
        -1.0,
        0.0,
        0.0,
        1.0,
        2.220446049250313e-16,
        0.0,
        0.0,
        0.0,
        0.0,
        1.0
      ],
      "name": "Object001"
    },
    {
      "mesh": 0,
      "name": "Object001_Material #33_0"
    },
    {
      "children": [
        6
      ],
      "matrix": [
        1.0,
        0.0,
        0.0,
        0.0,
        0.0,
        2.220446049250313e-16,
        -1.0,
        0.0,
        0.0,
        1.0,
        2.220446049250313e-16,
        0.0,
        0.0,
        0.0,
        0.0,
        1.0
      ],
      "name": "Object002"
    },
    {
      "mesh": 1,
      "name": "Object002_Material #34_0"
    },
    {
      "children": [
        8
      ],
      "matrix": [
        1.0,
        0.0,
        0.0,
        0.0,
        0.0,
        2.220446049250313e-16,
        -1.0,
        0.0,
        0.0,
        1.0,
        2.220446049250313e-16,
        0.0,
        0.4861602783203125,
        0.0,
        7.803764343261719,
        1.0
      ],
      "name": "Plane001"
    },
    {
      "mesh": 2,
      "name": "Plane001__0"
    }
  ],
  "samplers": [
    {
      "magFilter": 9729,
      "minFilter": 9987,
      "wrapS": 10497,
      "wrapT": 10497
    }
  ],
  "scene": 0,
  "scenes": [
    {
      "name": "Sketchfab_Scene",
      "nodes": [
        0
      ]
    }
  ],
  "textures": [
    {
      "sampler": 0,
      "source": 0
    },
    {
      "sampler": 0,
      "source": 1
    },
    {
      "sampler": 0,
      "source": 2
    },
    {
      "sampler": 0,
      "source": 3
    },
    {
      "sampler": 0,
      "source": 4
    },
    {
      "sampler": 0,
      "source": 5
    }
  ]
}
