{
  "accessors": [
    {
      "bufferView": 2,
      "componentType": 5126,
      "count": 4,
      "max": [
        1.0,
        1.0,
        0.0
      ],
      "min": [
        -1.0,
        -1.0,
        0.0
      ],
      "type": "VEC3"
    },
    {
      "bufferView": 2,
      "byteOffset": 48,
      "componentType": 5126,
      "count": 4,
      "max": [
        0.0,
        0.0,
        1.0
      ],
      "min": [
        0.0,
        0.0,
        1.0
      ],
      "type": "VEC3"
    },
    {
      "bufferView": 1,
      "componentType": 5126,
      "count": 4,
      "max": [
        0.9998999834060669,
        0.9998999834060669
      ],
      "min": [
        9.999999747378752e-05,
        9.999999747378752e-05
      ],
      "type": "VEC2"
    },
    {
      "bufferView": 0,
      "componentType": 5125,
      "count": 6,
      "type": "SCALAR"
    },
    {
      "bufferView": 2,
      "byteOffset": 96,
      "componentType": 5126,
      "count": 49784,
      "max": [
        0.06094999983906746,
        0.0458500012755394,
        0.18212999403476715
      ],
      "min": [
        0.00925000011920929,
        0.0008999999845400453,
        0.08895000070333481
      ],
      "type": "VEC3"
    },
    {
      "bufferView": 2,
      "byteOffset": 597504,
      "componentType": 5126,
      "count": 49784,
      "max": [
        1.0,
        1.0,
        1.0
      ],
      "min": [
        -1.0,
        -1.0,
        -1.0
      ],
      "type": "VEC3"
    },
    {
      "bufferView": 1,
      "byteOffset": 32,
      "componentType": 5126,
      "count": 49784,
      "max": [
        0.9990000128746033,
        0.9990000128746033
      ],
      "min": [
        0.0010000000474974513,
        0.0010000000474974513
      ],
      "type": "VEC2"
    },
    {
      "bufferView": 0,
      "byteOffset": 24,
      "componentType": 5125,
      "count": 75852,
      "type": "SCALAR"
    },
    {
      "bufferView": 2,
      "byteOffset": 1194912,
      "componentType": 5126,
      "count": 10871,
      "max": [
        0.07399000227451324,
        0.06340000033378601,
        0.10571999847888947
      ],
      "min": [
        0.03751000016927719,
        0.00203000009059906,
        2.9999999242136255e-05
      ],
      "type": "VEC3"
    },
    {
      "bufferView": 2,
      "byteOffset": 1325364,
      "componentType": 5126,
      "count": 10871,
      "max": [
        0.9999262094497681,
        0.9998978972434998,
        0.9999731183052063
      ],
      "min": [
        -0.9999262094497681,
        -0.9999308586120605,
        -0.9999332427978516
      ],
      "type": "VEC3"
    },
    {
      "bufferView": 1,
      "byteOffset": 398304,
      "componentType": 5126,
      "count": 10871,
      "max": [
        0.9989799857139587,
        0.9989799857139587
      ],
      "min": [
        0.001019999966956675,
        0.001019999966956675
      ],
      "type": "VEC2"
    },
    {
      "bufferView": 0,
      "byteOffset": 303432,
      "componentType": 5125,
      "count": 29928,
      "type": "SCALAR"
    },
    {
      "bufferView": 2,
      "byteOffset": 1455816,
      "componentType": 5126,
      "count": 10906,
      "max": [
        0.02961999922990799,
        0.03449999913573265,
        0.10572999715805054
      ],
      "min": [
        -0.006719999946653843,
        -0.012400000356137753,
        -0.00022000000171829015
      ],
      "type": "VEC3"
    },
    {
      "bufferView": 2,
      "byteOffset": 1586688,
      "componentType": 5126,
      "count": 10906,
      "max": [
        1.0,
        0.9999732375144958,
        0.9999815821647644
      ],
      "min": [
        -1.0,
        -0.9999732375144958,
        -0.999973475933075
      ],
      "type": "VEC3"
    },
    {
      "bufferView": 1,
      "byteOffset": 485272,
      "componentType": 5126,
      "count": 10906,
      "max": [
        0.9989699721336365,
        0.9989699721336365
      ],
      "min": [
        0.0010300000431016088,
        0.0010300000431016088
      ],
      "type": "VEC2"
    },
    {
      "bufferView": 0,
      "byteOffset": 423144,
      "componentType": 5125,
      "count": 29928,
      "type": "SCALAR"
    },
    {
      "bufferView": 2,
      "byteOffset": 1717560,
      "componentType": 5126,
      "count": 30830,
      "max": [
        0.08017999678850174,
        0.03571999818086624,
        0.1911499947309494
      ],
      "min": [
        -0.005919999908655882,
        -0.04602999985218048,
        0.08528000116348267
      ],
      "type": "VEC3"
    },
    {
      "bufferView": 2,
      "byteOffset": 2087520,
      "componentType": 5126,
      "count": 30830,
      "max": [
        1.0,
        1.0,
        1.0
      ],
      "min": [
        -1.0,
        -1.0,
        -1.0
      ],
      "type": "VEC3"
    },
    {
      "bufferView": 1,
      "byteOffset": 572520,
      "componentType": 5126,
      "count": 30830,
      "max": [
        0.9976300001144409,
        0.9976300001144409
      ],
      "min": [
        0.002369999885559082,
        0.002369999885559082
      ],
      "type": "VEC2"
    },
    {
      "bufferView": 0,
      "byteOffset": 542856,
      "componentType": 5125,
      "count": 93429,
      "type": "SCALAR"
    },
    {
      "bufferView": 2,
      "byteOffset": 2457480,
      "componentType": 5126,
      "count": 27357,
      "max": [
        0.0968099981546402,
        0.05293000116944313,
        0.17684000730514526
      ],
      "min": [
        0.04678000137209892,
        -0.027499999850988388,
        0.09272000193595886
      ],
      "type": "VEC3"
    },
    {
      "bufferView": 2,
      "byteOffset": 2785764,
      "componentType": 5126,
      "count": 27357,
      "max": [
        0.9998001456260681,
        0.9997403621673584,
        0.9999766945838928
      ],
      "min": [
        -0.9997990727424622,
        -0.9997397661209106,
        -0.9999766945838928
      ],
      "type": "VEC3"
    },
    {
      "bufferView": 1,
      "byteOffset": 819160,
      "componentType": 5126,
      "count": 27357,
      "max": [
        0.9987800121307373,
        0.9987800121307373
      ],
      "min": [
        0.0012199999764561653,
        0.0012199999764561653
      ],
      "type": "VEC2"
    },
    {
      "bufferView": 0,
      "byteOffset": 916572,
      "componentType": 5125,
      "count": 84648,
      "type": "SCALAR"
    },
    {
      "bufferView": 2,
      "byteOffset": 3114048,
      "componentType": 5126,
      "count": 27334,
      "max": [
        0.023760000243782997,
        0.05094999819993973,
        0.17842000722885132
      ],
      "min": [
        -0.019589999690651894,
        -0.014410000294446945,
        0.08910000324249268
      ],
      "type": "VEC3"
    },
    {
      "bufferView": 2,
      "byteOffset": 3442056,
      "componentType": 5126,
      "count": 27334,
      "max": [
        0.9999774098396301,
        0.9998630881309509,
        0.9999995827674866
      ],
      "min": [
        -0.9999980330467224,
        -0.9997666478157043,
        -0.999999463558197
      ],
      "type": "VEC3"
    },
    {
      "bufferView": 1,
      "byteOffset": 1038016,
      "componentType": 5126,
      "count": 27334,
      "max": [
        0.9987499713897705,
        0.9987499713897705
      ],
      "min": [
        0.0012499999720603228,
        0.0012499999720603228
      ],
      "type": "VEC2"
    },
    {
      "bufferView": 0,
      "byteOffset": 1255164,
      "componentType": 5125,
      "count": 84648,
      "type": "SCALAR"
    },
    {
      "bufferView": 2,
      "byteOffset": 3770064,
      "componentType": 5126,
      "count": 1984,
      "max": [
        1.0,
        1.0,
        1.0
      ],
      "min": [
        -1.0,
        -1.0,
        -1.0
      ],
      "type": "VEC3"
    },
    {
      "bufferView": 2,
      "byteOffset": 3793872,
      "componentType": 5126,
      "count": 1984,
      "max": [
        0.9904383420944214,
        0.9904383420944214,
        0.9951387047767639
      ],
      "min": [
        -0.9904383420944214,
        -0.9904383420944214,
        -0.9951387047767639
      ],
      "type": "VEC3"
    },
    {
      "bufferView": 0,
      "byteOffset": 1593756,
      "componentType": 5125,
      "count": 2880,
      "type": "SCALAR"
    }
  ],
  "asset": {
    "extras": {
      "author": "pinguinoconpulgares (https://sketchfab.com/pinguinoconpulgares)",
      "license": "CC-BY-4.0 (http://creativecommons.org/licenses/by/4.0/)",
      "source": "https://sketchfab.com/3d-models/badass-exosuit-5a94afcec4f44467b509b2d6a7c93ea6",
      "title": "Badass exosuit"
    },
    "generator": "Sketchfab-12.66.0",
    "version": "2.0"
  },
  "bufferViews": [
    {
      "buffer": 0,
      "byteLength": 1605276,
      "name": "floatBufferViews",
      "target": 34963
    },
    {
      "buffer": 0,
      "byteLength": 1256688,
      "byteOffset": 1605276,
      "byteStride": 8,
      "name": "floatBufferViews",
      "target": 34962
    },
    {
      "buffer": 0,
      "byteLength": 3817680,
      "byteOffset": 2861964,
      "byteStride": 12,
      "name": "floatBufferViews",
      "target": 34962
    }
  ],
  "buffers": [
    {
      "byteLength": 6679644,
      "uri": "scene.bin"
    }
  ],
  "extensionsUsed": [
    "KHR_materials_unlit"
  ],
  "images": [
    {
      "uri": "textures/WHITE_baseColor.png"
    },
    {
      "uri": "textures/BODY_baseColor.png"
    },
    {
      "uri": "textures/LEG_L_baseColor.png"
    },
    {
      "uri": "textures/LEG_R_baseColor.png"
    },
    {
      "uri": "textures/material_baseColor.png"
    },
    {
      "uri": "textures/ARM_L_baseColor.png"
    },
    {
      "uri": "textures/ARM_R_baseColor.png"
    }
  ],
  "materials": [
    {
      "doubleSided": true,
      "extensions": {
        "KHR_materials_unlit": {}
      },
      "name": "Material",
      "pbrMetallicRoughness": {
        "baseColorFactor": [
          0.97,
          0.97,
          0.97,
          1.0
        ],
        "metallicFactor": 0.0
      }
    },
    {
      "doubleSided": true,
      "extensions": {
        "KHR_materials_unlit": {}
      },
      "name": "WHITE",
      "pbrMetallicRoughness": {
        "baseColorTexture": {
          "index": 0
        },
        "metallicFactor": 0.0
      }
    },
    {
      "doubleSided": true,
      "extensions": {
        "KHR_materials_unlit": {}
      },
      "name": "BODY",
      "pbrMetallicRoughness": {
        "baseColorTexture": {
          "index": 1
        },
        "metallicFactor": 0.0
      }
    },
    {
      "doubleSided": true,
      "extensions": {
        "KHR_materials_unlit": {}
      },
      "name": "LEG_L",
      "pbrMetallicRoughness": {
        "baseColorTexture": {
          "index": 2
        },
        "metallicFactor": 0.0
      }
    },
    {
      "doubleSided": true,
      "extensions": {
        "KHR_materials_unlit": {}
      },
      "name": "LEG_R",
      "pbrMetallicRoughness": {
        "baseColorTexture": {
          "index": 3
        },
        "metallicFactor": 0.0
      }
    },
    {
      "doubleSided": true,
      "extensions": {
        "KHR_materials_unlit": {}
      },
      "name": "material",
      "pbrMetallicRoughness": {
        "baseColorTexture": {
          "index": 4
        },
        "metallicFactor": 0.0
      }
    },
    {
      "doubleSided": true,
      "extensions": {
        "KHR_materials_unlit": {}
      },
      "name": "ARM_L",
      "pbrMetallicRoughness": {
        "baseColorTexture": {
          "index": 5
        },
        "metallicFactor": 0.0
      }
    },
    {
      "doubleSided": true,
      "extensions": {
        "KHR_materials_unlit": {}
      },
      "name": "ARM_R",
      "pbrMetallicRoughness": {
        "baseColorTexture": {
          "index": 6
        },
        "metallicFactor": 0.0
      }
    }
  ],
  "meshes": [
    {
      "name": "Plane",
      "primitives": [
        {
          "attributes": {
            "NORMAL": 1,
            "POSITION": 0,
            "TEXCOORD_0": 2
          },
          "indices": 3,
          "material": 1,
          "mode": 4
        }
      ]
    },
    {
      "name": "Plane",
      "primitives": [
        {
          "attributes": {
            "NORMAL": 5,
            "POSITION": 4,
            "TEXCOORD_0": 6
          },
          "indices": 7,
          "material": 2,
          "mode": 4
        }
      ]
    },
    {
      "name": "Plane",
      "primitives": [
        {
          "attributes": {
            "NORMAL": 9,
            "POSITION": 8,
            "TEXCOORD_0": 10
          },
          "indices": 11,
          "material": 3,
          "mode": 4
        }
      ]
    },
    {
      "name": "Plane",
      "primitives": [
        {
          "attributes": {
            "NORMAL": 13,
            "POSITION": 12,
            "TEXCOORD_0": 14
          },
          "indices": 15,
          "material": 4,
          "mode": 4
        }
      ]
    },
    {
      "name": "Plane",
      "primitives": [
        {
          "attributes": {
            "NORMAL": 17,
            "POSITION": 16,
            "TEXCOORD_0": 18
          },
          "indices": 19,
          "material": 5,
          "mode": 4
        }
      ]
    },
    {
      "name": "Plane",
      "primitives": [
        {
          "attributes": {
            "NORMAL": 21,
            "POSITION": 20,
            "TEXCOORD_0": 22
          },
          "indices": 23,
          "material": 6,
          "mode": 4
        }
      ]
    },
    {
      "name": "Plane",
      "primitives": [
        {
          "attributes": {
            "NORMAL": 25,
            "POSITION": 24,
            "TEXCOORD_0": 26
          },
          "indices": 27,
          "material": 7,
          "mode": 4
        }
      ]
    },
    {
      "name": "Sphere",
      "primitives": [
        {
          "attributes": {
            "NORMAL": 29,
            "POSITION": 28
          },
          "indices": 30,
          "material": 0,
          "mode": 4
        }
      ]
    }
  ],
  "nodes": [
    {
      "children": [
        1
      ],
      "matrix": [
        1.0,
        0.0,
        0.0,
        0.0,
        0.0,
        2.220446049250313e-16,
        -1.0,
        0.0,
        0.0,
        1.0,
        2.220446049250313e-16,
        0.0,
        0.0,
        0.0,
        0.0,
        1.0
      ],
      "name": "Sketchfab_model"
    },
    {
      "children": [
        2,
        10
      ],
      "name": "Root"
    },
    {
      "children": [
        3,
        4,
        5,
        6,
        7,
        8,
        9
      ],
      "matrix": [
        67.31939,
        0.0,
        0.0,
        0.0,
        0.0,
        67.31939,
        0.0,
        0.0,
        0.0,
        0.0,
        67.31939,
        0.0,
        -2.3671200000000003,
        -0.35051000000000004,
        -7.398549999999999,
        1.0
      ],
      "name": "Plane"
    },
    {
      "mesh": 0,
      "name": "Plane"
    },
    {
      "mesh": 1,
      "name": "Plane"
    },
    {
      "mesh": 2,
      "name": "Plane"
    },
    {
      "mesh": 3,
      "name": "Plane"
    },
    {
      "mesh": 4,
      "name": "Plane"
    },
    {
      "mesh": 5,
      "name": "Plane"
    },
    {
      "mesh": 6,
      "name": "Plane"
    },
    {
      "children": [
        11
      ],
      "matrix": [
        32.33465999999999,
        0.0,
        0.0,
        0.0,
        0.0,
        32.33465999999999,
        0.0,
        0.0,
        0.0,
        0.0,
        32.33465999999999,
        0.0,
        -0.31263,
        1.7162300000000001,
        -7.398409999999999,
        1.0
      ],
      "name": "Sphere"
    },
    {
      "mesh": 7,
      "name": "Sphere"
    }
  ],
  "samplers": [
    {
      "magFilter": 9729,
      "minFilter": 9987,
      "wrapS": 10497,
      "wrapT": 10497
    }
  ],
  "scene": 0,
  "scenes": [
    {
      "name": "Sketchfab_Scene",
      "nodes": [
        0
      ]
    }
  ],
  "textures": [
    {
      "sampler": 0,
      "source": 0
    },
    {
      "sampler": 0,
      "source": 1
    },
    {
      "sampler": 0,
      "source": 2
    },
    {
      "sampler": 0,
      "source": 3
    },
    {
      "sampler": 0,
      "source": 4
    },
    {
      "sampler": 0,
      "source": 5
    },
    {
      "sampler": 0,
      "source": 6
    }
  ]
}
