{
  "accessors": [
    {
      "bufferView": 2,
      "componentType": 5126,
      "count": 1080,
      "max": [
        0.08020679652690887,
        0.47396400570869446,
        0.32368800044059753
      ],
      "min": [
        -0.5949000120162964,
        -0.47396400570869446,
        -0.32368800044059753
      ],
      "type": "VEC3"
    },
    {
      "bufferView": 2,
      "byteOffset": 12960,
      "componentType": 5126,
      "count": 1080,
      "max": [
        1.0,
        1.0,
        1.0
      ],
      "min": [
        -1.0,
        -1.0,
        -1.0
      ],
      "type": "VEC3"
    },
    {
      "bufferView": 3,
      "componentType": 5126,
      "count": 1080,
      "max": [
        1.0,
        1.0,
        1.0,
        1.0
      ],
      "min": [
        -1.0,
        -1.0,
        -1.0,
        1.0
      ],
      "type": "VEC4"
    },
    {
      "bufferView": 1,
      "componentType": 5126,
      "count": 1080,
      "max": [
        0.8850330114364624,
        0.914929986000061
      ],
      "min": [
        0.0012999300379306078,
        0.2839899957180023
      ],
      "type": "VEC2"
    },
    {
      "bufferView": 0,
      "componentType": 5125,
      "count": 1800,
      "type": "SCALAR"
    },
    {
      "bufferView": 2,
      "byteOffset": 25920,
      "componentType": 5126,
      "count": 3572,
      "max": [
        0.8660899996757507,
        0.47624099254608154,
        1.0
      ],
      "min": [
        -0.8660899996757507,
        -0.47624099254608154,
        -1.0
      ],
      "type": "VEC3"
    },
    {
      "bufferView": 2,
      "byteOffset": 68784,
      "componentType": 5126,
      "count": 3572,
      "max": [
        1.0,
        0.9993056058883667,
        1.0
      ],
      "min": [
        -1.0,
        -0.9993056058883667,
        -1.0
      ],
      "type": "VEC3"
    },
    {
      "bufferView": 3,
      "byteOffset": 17280,
      "componentType": 5126,
      "count": 3572,
      "max": [
        0.9994379878044128,
        1.0,
        0.9999989867210388,
        1.0
      ],
      "min": [
        -0.9999930262565613,
        -1.0,
        -0.9999989867210388,
        1.0
      ],
      "type": "VEC4"
    },
    {
      "bufferView": 1,
      "byteOffset": 8640,
      "componentType": 5126,
      "count": 3572,
      "max": [
        0.9871379733085632,
        0.9901139736175537
      ],
      "min": [
        0.028242699801921844,
        0.0012999300379306078
      ],
      "type": "VEC2"
    },
    {
      "bufferView": 0,
      "byteOffset": 7200,
      "componentType": 5125,
      "count": 14400,
      "type": "SCALAR"
    },
    {
      "bufferView": 2,
      "byteOffset": 111648,
      "componentType": 5126,
      "count": 6368,
      "max": [
        -0.03621219843626022,
        0.39983201026916504,
        0.3862980008125305
      ],
      "min": [
        -0.7059109807014465,
        -0.39983201026916504,
        -0.3862980008125305
      ],
      "type": "VEC3"
    },
    {
      "bufferView": 2,
      "byteOffset": 188064,
      "componentType": 5126,
      "count": 6368,
      "max": [
        1.0,
        1.0,
        1.0
      ],
      "min": [
        -1.0,
        -1.0,
        -1.0
      ],
      "type": "VEC3"
    },
    {
      "bufferView": 3,
      "byteOffset": 74432,
      "componentType": 5126,
      "count": 6368,
      "max": [
        1.0,
        1.0,
        1.0,
        1.0
      ],
      "min": [
        -1.0,
        -1.0,
        -1.0,
        -1.0
      ],
      "type": "VEC4"
    },
    {
      "bufferView": 1,
      "byteOffset": 37216,
      "componentType": 5126,
      "count": 6368,
      "max": [
        0.9961230158805847,
        0.9959250092506409
      ],
      "min": [
        0.0012999300379306078,
        0.0012999300379306078
      ],
      "type": "VEC2"
    },
    {
      "bufferView": 0,
      "byteOffset": 64800,
      "componentType": 5125,
      "count": 12264,
      "type": "SCALAR"
    },
    {
      "bufferView": 2,
      "byteOffset": 264480,
      "componentType": 5126,
      "count": 24422,
      "max": [
        0.040130700916051865,
        0.46890801191329956,
        0.37389901280403137
      ],
      "min": [
        -0.6946200132369995,
        -0.46890801191329956,
        -0.37389901280403137
      ],
      "type": "VEC3"
    },
    {
      "bufferView": 2,
      "byteOffset": 557544,
      "componentType": 5126,
      "count": 24422,
      "max": [
        1.0,
        1.0,
        1.0
      ],
      "min": [
        -1.0,
        -1.0,
        -1.0
      ],
      "type": "VEC3"
    },
    {
      "bufferView": 3,
      "byteOffset": 176320,
      "componentType": 5126,
      "count": 24422,
      "max": [
        1.0,
        0.9999960064888,
        1.0,
        1.0
      ],
      "min": [
        -0.9999989867210388,
        -0.9999960064888,
        -1.0,
        -1.0
      ],
      "type": "VEC4"
    },
    {
      "bufferView": 1,
      "byteOffset": 88160,
      "componentType": 5126,
      "count": 24422,
      "max": [
        0.9977009892463684,
        0.9954410195350647
      ],
      "min": [
        0.0012999300379306078,
        0.0012999300379306078
      ],
      "type": "VEC2"
    },
    {
      "bufferView": 0,
      "byteOffset": 113856,
      "componentType": 5125,
      "count": 56064,
      "type": "SCALAR"
    },
    {
      "bufferView": 2,
      "byteOffset": 850608,
      "componentType": 5126,
      "count": 28994,
      "max": [
        0.09798920154571533,
        0.44805601239204407,
        0.37942999601364136
      ],
      "min": [
        -0.7009459733963013,
        -0.44805601239204407,
        -0.37942999601364136
      ],
      "type": "VEC3"
    },
    {
      "bufferView": 2,
      "byteOffset": 1198536,
      "componentType": 5126,
      "count": 28994,
      "max": [
        1.0,
        1.0,
        1.0
      ],
      "min": [
        -1.0,
        -1.0,
        -1.0
      ],
      "type": "VEC3"
    },
    {
      "bufferView": 3,
      "byteOffset": 567072,
      "componentType": 5126,
      "count": 28994,
      "max": [
        0.9999409914016724,
        1.0,
        1.0,
        1.0
      ],
      "min": [
        -1.0,
        -1.0,
        -1.0,
        1.0
      ],
      "type": "VEC4"
    },
    {
      "bufferView": 1,
      "byteOffset": 283536,
      "componentType": 5126,
      "count": 28994,
      "max": [
        0.9987000226974487,
        0.9979979991912842
      ],
      "min": [
        0.0012999300379306078,
        0.0012999300379306078
      ],
      "type": "VEC2"
    },
    {
      "bufferView": 0,
      "byteOffset": 338112,
      "componentType": 5125,
      "count": 99120,
      "type": "SCALAR"
    },
    {
      "bufferView": 2,
      "byteOffset": 1546464,
      "componentType": 5126,
      "count": 240,
      "max": [
        -0.2086080014705658,
        0.05868469923734665,
        0.05868469923734665
      ],
      "min": [
        -0.32023298740386963,
        -0.05868479982018471,
        -0.05868479982018471
      ],
      "type": "VEC3"
    },
    {
      "bufferView": 2,
      "byteOffset": 1549344,
      "componentType": 5126,
      "count": 240,
      "max": [
        0.9920774698257446,
        0.9435241222381592,
        0.9435217380523682
      ],
      "min": [
        -0.9920774698257446,
        -0.9435241222381592,
        -0.9435217380523682
      ],
      "type": "VEC3"
    },
    {
      "bufferView": 3,
      "byteOffset": 1030976,
      "componentType": 5126,
      "count": 240,
      "max": [
        0.9490569829940796,
        -0.11077599972486496,
        0.9478870034217834,
        1.0
      ],
      "min": [
        -0.9166420102119446,
        -0.9910140037536621,
        -0.9494460225105286,
        1.0
      ],
      "type": "VEC4"
    },
    {
      "bufferView": 1,
      "byteOffset": 515488,
      "componentType": 5126,
      "count": 240,
      "max": [
        0.6338189840316772,
        0.2868790030479431
      ],
      "min": [
        0.5457720160484314,
        0.15149199962615967
      ],
      "type": "VEC2"
    },
    {
      "bufferView": 0,
      "byteOffset": 734592,
      "componentType": 5125,
      "count": 240,
      "type": "SCALAR"
    }
  ],
  "asset": {
    "extras": {
      "author": "iedalton (https://sketchfab.com/iedalton)",
      "license": "CC-BY-4.0 (http://creativecommons.org/licenses/by/4.0/)",
      "source": "https://sketchfab.com/3d-models/scifi-reactor-core-b3fe00d6b73841a0b6b3a288efc03668",
      "title": "SciFi Reactor Core"
    },
    "generator": "Sketchfab-12.66.0",
    "version": "2.0"
  },
  "bufferViews": [
    {
      "buffer": 0,
      "byteLength": 735552,
      "name": "floatBufferViews",
      "target": 34963
    },
    {
      "buffer": 0,
      "byteLength": 517408,
      "byteOffset": 735552,
      "byteStride": 8,
      "name": "floatBufferViews",
      "target": 34962
    },
    {
      "buffer": 0,
      "byteLength": 1552224,
      "byteOffset": 1252960,
      "byteStride": 12,
      "name": "floatBufferViews",
      "target": 34962
    },
    {
      "buffer": 0,
      "byteLength": 1034816,
      "byteOffset": 2805184,
      "byteStride": 16,
      "name": "floatBufferViews",
      "target": 34962
    }
  ],
  "buffers": [
    {
      "byteLength": 3840000,
      "uri": "scene.bin"
    }
  ],
  "images": [
    {
      "uri": "textures/Bulb_baseColor.jpeg"
    },
    {
      "uri": "textures/Bulb_metallicRoughness.png"
    },
    {
      "uri": "textures/Bulb_normal.jpeg"
    },
    {
      "uri": "textures/ShinyMetal_baseColor.jpeg"
    },
    {
      "uri": "textures/ShinyMetal_metallicRoughness.png"
    },
    {
      "uri": "textures/ShinyMetal_normal.jpeg"
    },
    {
      "uri": "textures/RoghMetal_baseColor.jpeg"
    },
    {
      "uri": "textures/RoghMetal_metallicRoughness.png"
    },
    {
      "uri": "textures/RoghMetal_normal.jpeg"
    },
    {
      "uri": "textures/aintedMetal_baseColor.jpeg"
    },
    {
      "uri": "textures/aintedMetal_metallicRoughness.png"
    },
    {
      "uri": "textures/aintedMetal_normal.jpeg"
    },
    {
      "uri": "textures/Rubber_baseColor.jpeg"
    },
    {
      "uri": "textures/Rubber_metallicRoughness.png"
    },
    {
      "uri": "textures/Rubber_normal.jpeg"
    },
    {
      "uri": "textures/Plastic_baseColor.jpeg"
    },
    {
      "uri": "textures/Plastic_metallicRoughness.png"
    },
    {
      "uri": "textures/Plastic_normal.jpeg"
    }
  ],
  "materials": [
    {
      "doubleSided": true,
      "name": "Bulb",
      "normalTexture": {
        "index": 2
      },
      "pbrMetallicRoughness": {
        "baseColorTexture": {
          "index": 0
        },
        "metallicRoughnessTexture": {
          "index": 1
        }
      }
    },
    {
      "doubleSided": true,
      "name": "ShinyMetal",
      "normalTexture": {
        "index": 5
      },
      "pbrMetallicRoughness": {
        "baseColorTexture": {
          "index": 3
        },
        "metallicRoughnessTexture": {
          "index": 4
        }
      }
    },
    {
      "doubleSided": true,
      "name": "RoghMetal",
      "normalTexture": {
        "index": 8
      },
      "pbrMetallicRoughness": {
        "baseColorTexture": {
          "index": 6
        },
        "metallicRoughnessTexture": {
          "index": 7
        }
      }
    },
    {
      "doubleSided": true,
      "name": "aintedMetal",
      "normalTexture": {
        "index": 11
      },
      "pbrMetallicRoughness": {
        "baseColorTexture": {
          "index": 9
        },
        "metallicRoughnessTexture": {
          "index": 10
        }
      }
    },
    {
      "doubleSided": true,
      "name": "Rubber",
      "normalTexture": {
        "index": 14
      },
      "pbrMetallicRoughness": {
        "baseColorTexture": {
          "index": 12
        },
        "metallicRoughnessTexture": {
          "index": 13
        }
      }
    },
    {
      "doubleSided": true,
      "name": "Plastic",
      "normalTexture": {
        "index": 17
      },
      "pbrMetallicRoughness": {
        "baseColorTexture": {
          "index": 15
        },
        "metallicRoughnessTexture": {
          "index": 16
        }
      }
    }
  ],
  "meshes": [
    {
      "name": "defaultMaterial",
      "primitives": [
        {
          "attributes": {
            "NORMAL": 1,
            "POSITION": 0,
            "TANGENT": 2,
            "TEXCOORD_0": 3
          },
          "indices": 4,
          "material": 5,
          "mode": 4
        }
      ]
    },
    {
      "name": "defaultMaterial",
      "primitives": [
        {
          "attributes": {
            "NORMAL": 6,
            "POSITION": 5,
            "TANGENT": 7,
            "TEXCOORD_0": 8
          },
          "indices": 9,
          "material": 4,
          "mode": 4
        }
      ]
    },
    {
      "name": "defaultMaterial",
      "primitives": [
        {
          "attributes": {
            "NORMAL": 11,
            "POSITION": 10,
            "TANGENT": 12,
            "TEXCOORD_0": 13
          },
          "indices": 14,
          "material": 3,
          "mode": 4
        }
      ]
    },
    {
      "name": "defaultMaterial",
      "primitives": [
        {
          "attributes": {
            "NORMAL": 16,
            "POSITION": 15,
            "TANGENT": 17,
            "TEXCOORD_0": 18
          },
          "indices": 19,
          "material": 2,
          "mode": 4
        }
      ]
    },
    {
      "name": "defaultMaterial",
      "primitives": [
        {
          "attributes": {
            "NORMAL": 21,
            "POSITION": 20,
            "TANGENT": 22,
            "TEXCOORD_0": 23
          },
          "indices": 24,
          "material": 1,
          "mode": 4
        }
      ]
    },
    {
      "name": "defaultMaterial",
      "primitives": [
        {
          "attributes": {
            "NORMAL": 26,
            "POSITION": 25,
            "TANGENT": 27,
            "TEXCOORD_0": 28
          },
          "indices": 29,
          "material": 0,
          "mode": 4
        }
      ]
    }
  ],
  "nodes": [
    {
      "children": [
        1
      ],
      "matrix": [
        1.0,
        0.0,
        0.0,
        0.0,
        0.0,
        2.220446049250313e-16,
        -1.0,
        0.0,
        0.0,
        1.0,
        2.220446049250313e-16,
        0.0,
        0.0,
        0.0,
        0.0,
        1.0
      ],
      "name": "Sketchfab_model"
    },
    {
      "children": [
        2,
        4,
        6,
        8,
        10,
        12
      ],
      "matrix": [
        1.0,
        0.0,
        0.0,
        0.0,
        0.0,
        -4.371139006309477e-08,
        0.999999999999999,
        0.0,
        0.0,
        -0.999999999999999,
        -4.371139006309477e-08,
        0.0,
        0.0,
        0.0,
        0.0,
        1.0
      ],
      "name": "Collada visual scene group"
    },
    {
      "children": [
        3
      ],
      "name": "Icosphere.000"
    },
    {
      "mesh": 0,
      "name": "defaultMaterial"
    },
    {
      "children": [
        5
      ],
      "name": "Icosphere.000"
    },
    {
      "mesh": 1,
      "name": "defaultMaterial"
    },
    {
      "children": [
        7
      ],
      "name": "Icosphere.000"
    },
    {
      "mesh": 2,
      "name": "defaultMaterial"
    },
    {
      "children": [
        9
      ],
      "name": "Icosphere.000"
    },
    {
      "mesh": 3,
      "name": "defaultMaterial"
    },
    {
      "children": [
        11
      ],
      "name": "Icosphere.000"
    },
    {
      "mesh": 4,
      "name": "defaultMaterial"
    },
    {
      "children": [
        13
      ],
      "name": "Icosphere.000"
    },
    {
      "mesh": 5,
      "name": "defaultMaterial"
    }
  ],
  "samplers": [
    {
      "magFilter": 9729,
      "minFilter": 9987,
      "wrapS": 10497,
      "wrapT": 10497
    }
  ],
  "scene": 0,
  "scenes": [
    {
      "name": "Sketchfab_Scene",
      "nodes": [
        0
      ]
    }
  ],
  "textures": [
    {
      "sampler": 0,
      "source": 0
    },
    {
      "sampler": 0,
      "source": 1
    },
    {
      "sampler": 0,
      "source": 2
    },
    {
      "sampler": 0,
      "source": 3
    },
    {
      "sampler": 0,
      "source": 4
    },
    {
      "sampler": 0,
      "source": 5
    },
    {
      "sampler": 0,
      "source": 6
    },
    {
      "sampler": 0,
      "source": 7
    },
    {
      "sampler": 0,
      "source": 8
    },
    {
      "sampler": 0,
      "source": 9
    },
    {
      "sampler": 0,
      "source": 10
    },
    {
      "sampler": 0,
      "source": 11
    },
    {
      "sampler": 0,
      "source": 12
    },
    {
      "sampler": 0,
      "source": 13
    },
    {
      "sampler": 0,
      "source": 14
    },
    {
      "sampler": 0,
      "source": 15
    },
    {
      "sampler": 0,
      "source": 16
    },
    {
      "sampler": 0,
      "source": 17
    }
  ]
}
