{
  "accessors": [
    {
      "bufferView": 2,
      "componentType": 5126,
      "count": 10453,
      "max": [
        2.8515117168426514,
        3.8277955055236816,
        -3.0958609580993652
      ],
      "min": [
        -2.9307665824890137,
        -3.8277955055236816,
        -4.691839694976807
      ],
      "type": "VEC3"
    },
    {
      "bufferView": 2,
      "byteOffset": 125436,
      "componentType": 5126,
      "count": 10453,
      "max": [
        1.0,
        1.0,
        1.0
      ],
      "min": [
        -1.0,
        -1.0,
        -1.0
      ],
      "type": "VEC3"
    },
    {
      "bufferView": 1,
      "componentType": 5126,
      "count": 10453,
      "max": [
        1.0,
        1.0
      ],
      "min": [
        0.0,
        0.0
      ],
      "type": "VEC2"
    },
    {
      "bufferView": 1,
      "byteOffset": 83624,
      "componentType": 5126,
      "count": 10453,
      "max": [
        1.0,
        1.0
      ],
      "min": [
        0.0,
        0.0
      ],
      "type": "VEC2"
    },
    {
      "bufferView": 1,
      "byteOffset": 167248,
      "componentType": 5126,
      "count": 10453,
      "max": [
        1.0,
        1.0
      ],
      "min": [
        0.0,
        0.0
      ],
      "type": "VEC2"
    },
    {
      "bufferView": 0,
      "componentType": 5125,
      "count": 32796,
      "type": "SCALAR"
    },
    {
      "bufferView": 2,
      "byteOffset": 250872,
      "componentType": 5126,
      "count": 580,
      "max": [
        2.3641629219055176,
        3.405299186706543,
        -3.213899612426758
      ],
      "min": [
        -0.5625601410865784,
        -3.405299186706543,
        -4.631683826446533
      ],
      "type": "VEC3"
    },
    {
      "bufferView": 2,
      "byteOffset": 257832,
      "componentType": 5126,
      "count": 580,
      "max": [
        1.0,
        1.0,
        1.0
      ],
      "min": [
        -1.0,
        -1.0,
        -1.0
      ],
      "type": "VEC3"
    },
    {
      "bufferView": 1,
      "byteOffset": 250872,
      "componentType": 5126,
      "count": 580,
      "max": [
        0.971011221408844,
        0.9470435976982117
      ],
      "min": [
        0.28765034675598145,
        0.0
      ],
      "type": "VEC2"
    },
    {
      "bufferView": 1,
      "byteOffset": 255512,
      "componentType": 5126,
      "count": 580,
      "max": [
        0.971011221408844,
        0.9470435976982117
      ],
      "min": [
        0.28765034675598145,
        0.0
      ],
      "type": "VEC2"
    },
    {
      "bufferView": 1,
      "byteOffset": 260152,
      "componentType": 5126,
      "count": 580,
      "max": [
        0.971011221408844,
        0.9470435976982117
      ],
      "min": [
        0.28765034675598145,
        0.0
      ],
      "type": "VEC2"
    },
    {
      "bufferView": 0,
      "byteOffset": 131184,
      "componentType": 5125,
      "count": 2304,
      "type": "SCALAR"
    },
    {
      "bufferView": 2,
      "byteOffset": 264792,
      "componentType": 5126,
      "count": 120,
      "max": [
        -2.7180991172790527,
        0.4457637667655945,
        -3.487994909286499
      ],
      "min": [
        -2.762936592102051,
        -0.4457637667655945,
        -3.7199671268463135
      ],
      "type": "VEC3"
    },
    {
      "bufferView": 2,
      "byteOffset": 266232,
      "componentType": 5126,
      "count": 120,
      "max": [
        1.0,
        0.0,
        1.0
      ],
      "min": [
        -1.0,
        0.0,
        -1.0
      ],
      "type": "VEC3"
    },
    {
      "bufferView": 1,
      "byteOffset": 264792,
      "componentType": 5126,
      "count": 120,
      "max": [
        0.9957177639007568,
        0.931892991065979
      ],
      "min": [
        0.5431414842605591,
        0.005610807798802853
      ],
      "type": "VEC2"
    },
    {
      "bufferView": 0,
      "byteOffset": 140400,
      "componentType": 5125,
      "count": 384,
      "type": "SCALAR"
    },
    {
      "bufferView": 2,
      "byteOffset": 267672,
      "componentType": 5126,
      "count": 44393,
      "max": [
        3.224245071411133,
        4.059440612792969,
        13.22509765625
      ],
      "min": [
        -3.3163962364196777,
        -4.059440612792969,
        -3.1769444942474365
      ],
      "type": "VEC3"
    },
    {
      "bufferView": 2,
      "byteOffset": 800388,
      "componentType": 5126,
      "count": 44393,
      "max": [
        1.0,
        1.0,
        1.0
      ],
      "min": [
        -1.0,
        -1.0,
        -1.0
      ],
      "type": "VEC3"
    },
    {
      "bufferView": 3,
      "componentType": 5126,
      "count": 44393,
      "max": [
        1.0,
        1.0,
        1.0,
        1.0
      ],
      "min": [
        -1.0,
        -1.0,
        -1.0,
        1.0
      ],
      "type": "VEC4"
    },
    {
      "bufferView": 1,
      "byteOffset": 265752,
      "componentType": 5126,
      "count": 44393,
      "max": [
        1.0,
        1.0
      ],
      "min": [
        0.0,
        0.0
      ],
      "type": "VEC2"
    },
    {
      "bufferView": 1,
      "byteOffset": 620896,
      "componentType": 5126,
      "count": 44393,
      "max": [
        1.0,
        1.0
      ],
      "min": [
        0.0,
        0.0
      ],
      "type": "VEC2"
    },
    {
      "bufferView": 1,
      "byteOffset": 976040,
      "componentType": 5126,
      "count": 44393,
      "max": [
        1.0,
        1.0
      ],
      "min": [
        0.0,
        0.0
      ],
      "type": "VEC2"
    },
    {
      "bufferView": 0,
      "byteOffset": 141936,
      "componentType": 5125,
      "count": 109188,
      "type": "SCALAR"
    },
    {
      "bufferView": 2,
      "byteOffset": 1333104,
      "componentType": 5126,
      "count": 3328,
      "max": [
        3.0307345390319824,
        4.035287857055664,
        12.878244400024414
      ],
      "min": [
        -2.8983500003814697,
        -4.035287857055664,
        -2.8732807636260986
      ],
      "type": "VEC3"
    },
    {
      "bufferView": 2,
      "byteOffset": 1373040,
      "componentType": 5126,
      "count": 3328,
      "max": [
        1.0,
        1.0,
        1.0
      ],
      "min": [
        -1.0,
        -1.0,
        -1.0
      ],
      "type": "VEC3"
    },
    {
      "bufferView": 3,
      "byteOffset": 710288,
      "componentType": 5126,
      "count": 3328,
      "max": [
        0.9999995827674866,
        1.0,
        0.9943044185638428,
        1.0
      ],
      "min": [
        -0.9999995827674866,
        -1.0,
        -0.9946892261505127,
        1.0
      ],
      "type": "VEC4"
    },
    {
      "bufferView": 1,
      "byteOffset": 1331184,
      "componentType": 5126,
      "count": 3328,
      "max": [
        0.9990365505218506,
        0.9842225313186646
      ],
      "min": [
        0.026149965822696686,
        0.0
      ],
      "type": "VEC2"
    },
    {
      "bufferView": 1,
      "byteOffset": 1357808,
      "componentType": 5126,
      "count": 3328,
      "max": [
        0.9990365505218506,
        0.9842225313186646
      ],
      "min": [
        0.026149965822696686,
        0.0
      ],
      "type": "VEC2"
    },
    {
      "bufferView": 1,
      "byteOffset": 1384432,
      "componentType": 5126,
      "count": 3328,
      "max": [
        0.9990365505218506,
        0.9842225313186646
      ],
      "min": [
        0.026149965822696686,
        0.0
      ],
      "type": "VEC2"
    },
    {
      "bufferView": 0,
      "byteOffset": 578688,
      "componentType": 5125,
      "count": 10344,
      "type": "SCALAR"
    },
    {
      "bufferView": 2,
      "byteOffset": 1412976,
      "componentType": 5126,
      "count": 2576,
      "max": [
        1.0087343454360962,
        3.817289113998413,
        12.493125915527344
      ],
      "min": [
        -2.643768548965454,
        -3.817289113998413,
        -2.501925230026245
      ],
      "type": "VEC3"
    },
    {
      "bufferView": 2,
      "byteOffset": 1443888,
      "componentType": 5126,
      "count": 2576,
      "max": [
        1.0,
        1.0,
        0.9909974336624146
      ],
      "min": [
        -1.0,
        -1.0,
        -0.9909980297088623
      ],
      "type": "VEC3"
    },
    {
      "bufferView": 1,
      "byteOffset": 1411056,
      "componentType": 5126,
      "count": 2576,
      "max": [
        0.9971687197685242,
        0.9928225874900818
      ],
      "min": [
        0.02732488326728344,
        0.00679419469088316
      ],
      "type": "VEC2"
    },
    {
      "bufferView": 1,
      "byteOffset": 1431664,
      "componentType": 5126,
      "count": 2576,
      "max": [
        0.9971687197685242,
        0.9928225874900818
      ],
      "min": [
        0.02732488326728344,
        0.00679419469088316
      ],
      "type": "VEC2"
    },
    {
      "bufferView": 0,
      "byteOffset": 620064,
      "componentType": 5125,
      "count": 6168,
      "type": "SCALAR"
    },
    {
      "bufferView": 2,
      "byteOffset": 1474800,
      "componentType": 5126,
      "count": 64,
      "max": [
        -2.7696139812469482,
        0.9348640441894531,
        11.676434516906738
      ],
      "min": [
        -2.8135578632354736,
        -0.9348640441894531,
        -1.740880012512207
      ],
      "type": "VEC3"
    },
    {
      "bufferView": 2,
      "byteOffset": 1475568,
      "componentType": 5126,
      "count": 64,
      "max": [
        0.9862173795700073,
        0.16545851528644562,
        0.0
      ],
      "min": [
        0.9862167835235596,
        -0.16545851528644562,
        -1.0657721816187404e-07
      ],
      "type": "VEC3"
    },
    {
      "bufferView": 1,
      "byteOffset": 1452272,
      "componentType": 5126,
      "count": 64,
      "max": [
        0.22404180467128754,
        0.9076588153839111
      ],
      "min": [
        0.10275877267122269,
        0.708381712436676
      ],
      "type": "VEC2"
    },
    {
      "bufferView": 0,
      "byteOffset": 644736,
      "componentType": 5125,
      "count": 168,
      "type": "SCALAR"
    }
  ],
  "asset": {
    "extras": {
      "author": "billyA (https://sketchfab.com/billyA)",
      "license": "CC-BY-4.0 (http://creativecommons.org/licenses/by/4.0/)",
      "source": "https://sketchfab.com/3d-models/sci-fi-corridor-77ce14453724416986893372ed8bd3eb",
      "title": "Sci-fi corridor"
    },
    "generator": "Sketchfab-12.68.0",
    "version": "2.0"
  },
  "bufferViews": [
    {
      "buffer": 0,
      "byteLength": 645408,
      "name": "floatBufferViews",
      "target": 34963
    },
    {
      "buffer": 0,
      "byteLength": 1452784,
      "byteOffset": 645408,
      "byteStride": 8,
      "name": "floatBufferViews",
      "target": 34962
    },
    {
      "buffer": 0,
      "byteLength": 1476336,
      "byteOffset": 2098192,
      "byteStride": 12,
      "name": "floatBufferViews",
      "target": 34962
    },
    {
      "buffer": 0,
      "byteLength": 763536,
      "byteOffset": 3574528,
      "byteStride": 16,
      "name": "floatBufferViews",
      "target": 34962
    }
  ],
  "buffers": [
    {
      "byteLength": 4338064,
      "uri": "scene.bin"
    }
  ],
  "images": [
    {
      "uri": "textures/whitematdoor_baseColor.png"
    },
    {
      "uri": "textures/whitematdoor_metallicRoughness.png"
    },
    {
      "uri": "textures/redmatdoor_baseColor.png"
    },
    {
      "uri": "textures/redmatdoor_metallicRoughness.png"
    },
    {
      "uri": "textures/Material_baseColor.png"
    },
    {
      "uri": "textures/Material_metallicRoughness.png"
    },
    {
      "uri": "textures/Material_normal.png"
    },
    {
      "uri": "textures/redmat_baseColor.png"
    },
    {
      "uri": "textures/redmat_metallicRoughness.png"
    },
    {
      "uri": "textures/redmat_normal.png"
    },
    {
      "uri": "textures/terminal_baseColor.png"
    },
    {
      "uri": "textures/terminal_metallicRoughness.png"
    }
  ],
  "materials": [
    {
      "doubleSided": true,
      "name": "whitematdoor",
      "pbrMetallicRoughness": {
        "baseColorTexture": {
          "index": 0
        },
        "metallicRoughnessTexture": {
          "index": 1
        }
      }
    },
    {
      "doubleSided": true,
      "name": "redmatdoor",
      "pbrMetallicRoughness": {
        "baseColorTexture": {
          "index": 2
        },
        "metallicRoughnessTexture": {
          "index": 3
        }
      }
    },
    {
      "doubleSided": true,
      "name": "emmisionorange",
      "pbrMetallicRoughness": {
        "baseColorFactor": [
          0.8,
          0.8,
          0.8,
          1.0
        ],
        "metallicFactor": 0.0,
        "roughnessFactor": 0.8211145618000169
      }
    },
    {
      "doubleSided": true,
      "name": "Material",
      "normalTexture": {
        "index": 6
      },
      "pbrMetallicRoughness": {
        "baseColorTexture": {
          "index": 4
        },
        "metallicRoughnessTexture": {
          "index": 5
        }
      }
    },
    {
      "doubleSided": true,
      "name": "redmat",
      "normalTexture": {
        "index": 9
      },
      "pbrMetallicRoughness": {
        "baseColorTexture": {
          "index": 7
        },
        "metallicRoughnessTexture": {
          "index": 8
        }
      }
    },
    {
      "doubleSided": true,
      "name": "terminal",
      "pbrMetallicRoughness": {
        "baseColorTexture": {
          "index": 10
        },
        "metallicRoughnessTexture": {
          "index": 11
        }
      }
    },
    {
      "doubleSided": true,
      "emissiveFactor": [
        1.0,
        1.0,
        1.0
      ],
      "name": "emission",
      "pbrMetallicRoughness": {
        "baseColorFactor": [
          0.8,
          0.8,
          0.8,
          1.0
        ],
        "metallicFactor": 0.0,
        "roughnessFactor": 0.8211145618000169
      }
    }
  ],
  "meshes": [
    {
      "name": "Cylinder.006_whitematdoor_0",
      "primitives": [
        {
          "attributes": {
            "NORMAL": 1,
            "POSITION": 0,
            "TEXCOORD_0": 2,
            "TEXCOORD_1": 3,
            "TEXCOORD_2": 4
          },
          "indices": 5,
          "material": 0,
          "mode": 4
        }
      ]
    },
    {
      "name": "Cylinder.006_redmatdoor_0",
      "primitives": [
        {
          "attributes": {
            "NORMAL": 7,
            "POSITION": 6,
            "TEXCOORD_0": 8,
            "TEXCOORD_1": 9,
            "TEXCOORD_2": 10
          },
          "indices": 11,
          "material": 1,
          "mode": 4
        }
      ]
    },
    {
      "name": "Cylinder.006_emmisionorange_0",
      "primitives": [
        {
          "attributes": {
            "NORMAL": 13,
            "POSITION": 12,
            "TEXCOORD_0": 14
          },
          "indices": 15,
          "material": 2,
          "mode": 4
        }
      ]
    },
    {
      "name": "Cylinder.005_Material_0",
      "primitives": [
        {
          "attributes": {
            "NORMAL": 17,
            "POSITION": 16,
            "TANGENT": 18,
            "TEXCOORD_0": 19,
            "TEXCOORD_1": 20,
            "TEXCOORD_2": 21
          },
          "indices": 22,
          "material": 3,
          "mode": 4
        }
      ]
    },
    {
      "name": "Cylinder.005_redmat_0",
      "primitives": [
        {
          "attributes": {
            "NORMAL": 24,
            "POSITION": 23,
            "TANGENT": 25,
            "TEXCOORD_0": 26,
            "TEXCOORD_1": 27,
            "TEXCOORD_2": 28
          },
          "indices": 29,
          "material": 4,
          "mode": 4
        }
      ]
    },
    {
      "name": "Cylinder.005_terminal_0",
      "primitives": [
        {
          "attributes": {
            "NORMAL": 31,
            "POSITION": 30,
            "TEXCOORD_0": 32,
            "TEXCOORD_1": 33
          },
          "indices": 34,
          "material": 5,
          "mode": 4
        }
      ]
    },
    {
      "name": "Cylinder.005_emission_0",
      "primitives": [
        {
          "attributes": {
            "NORMAL": 36,
            "POSITION": 35,
            "TEXCOORD_0": 37
          },
          "indices": 38,
          "material": 6,
          "mode": 4
        }
      ]
    }
  ],
  "nodes": [
    {
      "children": [
        1
      ],
      "matrix": [
        1.0,
        0.0,
        0.0,
        0.0,
        0.0,
        2.220446049250313e-16,
        -1.0,
        0.0,
        0.0,
        1.0,
        2.220446049250313e-16,
        0.0,
        0.0,
        0.0,
        0.0,
        1.0
      ],
      "name": "Sketchfab_model"
    },
    {
      "children": [
        2
      ],
      "matrix": [
        1.0,
        0.0,
        0.0,
        0.0,
        0.0,
        0.0,
        1.0,
        0.0,
        0.0,
        -1.0,
        0.0,
        0.0,
        0.0,
        0.0,
        0.0,
        1.0
      ],
      "name": "2d894d42a5bd4c68ad214ade0d4189e4.fbx"
    },
    {
      "children": [
        3,
        7
      ],
      "name": "RootNode"
    },
    {
      "children": [
        4,
        5,
        6
      ],
      "matrix": [
        7.549789948768648e-06,
        -99.99999999999973,
        0.0,
        0.0,
        7.549789954319763e-06,
        5.551115123125783e-13,
        -99.99999999999973,
        0.0,
        99.99999999999945,
        7.549789954319763e-06,
        7.549789948768648e-06,
        0.0,
        0.0,
        0.0,
        -2000.0,
        1.0
      ],
      "name": "Cylinder.006"
    },
    {
      "mesh": 0,
      "name": "Cylinder.006_whitematdoor_0"
    },
    {
      "mesh": 1,
      "name": "Cylinder.006_redmatdoor_0"
    },
    {
      "mesh": 2,
      "name": "Cylinder.006_emmisionorange_0"
    },
    {
      "children": [
        8,
        9,
        10,
        11
      ],
      "matrix": [
        7.549789948768648e-06,
        -99.99999999999973,
        0.0,
        0.0,
        7.549789954319763e-06,
        5.551115123125783e-13,
        -99.99999999999973,
        0.0,
        99.99999999999945,
        7.549789954319763e-06,
        7.549789948768648e-06,
        0.0,
        0.0,
        0.0,
        -2000.0,
        1.0
      ],
      "name": "Cylinder.005"
    },
    {
      "mesh": 3,
      "name": "Cylinder.005_Material_0"
    },
    {
      "mesh": 4,
      "name": "Cylinder.005_redmat_0"
    },
    {
      "mesh": 5,
      "name": "Cylinder.005_terminal_0"
    },
    {
      "mesh": 6,
      "name": "Cylinder.005_emission_0"
    }
  ],
  "samplers": [
    {
      "magFilter": 9729,
      "minFilter": 9987,
      "wrapS": 10497,
      "wrapT": 10497
    }
  ],
  "scene": 0,
  "scenes": [
    {
      "name": "Sketchfab_Scene",
      "nodes": [
        0
      ]
    }
  ],
  "textures": [
    {
      "sampler": 0,
      "source": 0
    },
    {
      "sampler": 0,
      "source": 1
    },
    {
      "sampler": 0,
      "source": 2
    },
    {
      "sampler": 0,
      "source": 3
    },
    {
      "sampler": 0,
      "source": 4
    },
    {
      "sampler": 0,
      "source": 5
    },
    {
      "sampler": 0,
      "source": 6
    },
    {
      "sampler": 0,
      "source": 7
    },
    {
      "sampler": 0,
      "source": 8
    },
    {
      "sampler": 0,
      "source": 9
    },
    {
      "sampler": 0,
      "source": 10
    },
    {
      "sampler": 0,
      "source": 11
    }
  ]
}
