{
  "accessors": [
    {
      "bufferView": 2,
      "componentType": 5126,
      "count": 809,
      "max": [
        21.4475154876709,
        14.657188415527344,
        11.027176856994629
      ],
      "min": [
        -21.4475154876709,
        -14.657182693481445,
        -11.027176856994629
      ],
      "type": "VEC3"
    },
    {
      "bufferView": 2,
      "byteOffset": 9708,
      "componentType": 5126,
      "count": 809,
      "max": [
        0.9999432563781738,
        1.0,
        1.0
      ],
      "min": [
        -1.0,
        -1.0,
        -1.0
      ],
      "type": "VEC3"
    },
    {
      "bufferView": 1,
      "componentType": 5126,
      "count": 809,
      "max": [
        1.3495780229568481,
        1.2854130268096924
      ],
      "min": [
        -0.34957799315452576,
        -0.2854120135307312
      ],
      "type": "VEC2"
    },
    {
      "bufferView": 0,
      "componentType": 5125,
      "count": 1311,
      "type": "SCALAR"
    },
    {
      "bufferView": 2,
      "byteOffset": 19416,
      "componentType": 5126,
      "count": 40,
      "max": [
        21.338056564331055,
        14.303050994873047,
        8.567882537841797
      ],
      "min": [
        -20.60356330871582,
        -13.456378936767578,
        2.907007932662964
      ],
      "type": "VEC3"
    },
    {
      "bufferView": 2,
      "byteOffset": 19896,
      "componentType": 5126,
      "count": 40,
      "max": [
        0.022250007838010788,
        -0.13434700667858124,
        0.9770473837852478
      ],
      "min": [
        -0.4109569489955902,
        -0.5811800360679626,
        0.8137748837471008
      ],
      "type": "VEC3"
    },
    {
      "bufferView": 1,
      "byteOffset": 6472,
      "componentType": 5126,
      "count": 40,
      "max": [
        1.1924339532852173,
        0.9931820034980774
      ],
      "min": [
        -0.000914999982342124,
        -0.004767999984323978
      ],
      "type": "VEC2"
    },
    {
      "bufferView": 0,
      "byteOffset": 5244,
      "componentType": 5125,
      "count": 72,
      "type": "SCALAR"
    },
    {
      "bufferView": 2,
      "byteOffset": 20376,
      "componentType": 5126,
      "count": 8,
      "max": [
        8.815546035766602,
        13.717256546020508,
        10.815043449401855
      ],
      "min": [
        -1.187379002571106,
        5.887876033782959,
        5.699370861053467
      ],
      "type": "VEC3"
    },
    {
      "bufferView": 2,
      "byteOffset": 20472,
      "componentType": 5126,
      "count": 8,
      "max": [
        -0.2171739637851715,
        -0.5111689567565918,
        0.8315898776054382
      ],
      "min": [
        -0.3896949887275696,
        -0.9172373414039612,
        0.08254799991846085
      ],
      "type": "VEC3"
    },
    {
      "bufferView": 1,
      "byteOffset": 6792,
      "componentType": 5126,
      "count": 8,
      "max": [
        0.988277018070221,
        1.2703030109405518
      ],
      "min": [
        0.014879999682307243,
        0.28154999017715454
      ],
      "type": "VEC2"
    },
    {
      "bufferView": 0,
      "byteOffset": 5532,
      "componentType": 5125,
      "count": 12,
      "type": "SCALAR"
    },
    {
      "bufferView": 2,
      "byteOffset": 20568,
      "componentType": 5126,
      "count": 4,
      "max": [
        6.697556972503662,
        8.340469360351563,
        5.229385852813721
      ],
      "min": [
        -1.641178011894226,
        -1.27675199508667,
        3.2429020404815674
      ],
      "type": "VEC3"
    },
    {
      "bufferView": 2,
      "byteOffset": 20616,
      "componentType": 5126,
      "count": 4,
      "max": [
        -0.09610201418399811,
        -0.22299903631210327,
        0.9700701236724854
      ],
      "min": [
        -0.09610201418399811,
        -0.22299903631210327,
        0.9700701236724854
      ],
      "type": "VEC3"
    },
    {
      "bufferView": 1,
      "byteOffset": 6856,
      "componentType": 5126,
      "count": 4,
      "max": [
        0.6599389910697937,
        0.8219980001449585
      ],
      "min": [
        0.3282040059566498,
        0.3922390043735504
      ],
      "type": "VEC2"
    },
    {
      "bufferView": 0,
      "byteOffset": 5580,
      "componentType": 5125,
      "count": 6,
      "type": "SCALAR"
    }
  ],
  "asset": {
    "extras": {
      "author": "Inditrion Dradnon (https://sketchfab.com/dradnon)",
      "license": "CC-BY-4.0 (http://creativecommons.org/licenses/by/4.0/)",
      "source": "https://sketchfab.com/3d-models/futuristic-free-standing-terminal-9a1a7f78cd4e4f709b59f070ac5bd48a",
      "title": "Futuristic Free-Standing Terminal"
    },
    "generator": "Sketchfab-15.44.0",
    "version": "2.0"
  },
  "bufferViews": [
    {
      "buffer": 0,
      "byteLength": 5604,
      "name": "floatBufferViews",
      "target": 34963
    },
    {
      "buffer": 0,
      "byteLength": 6888,
      "byteOffset": 5604,
      "byteStride": 8,
      "name": "floatBufferViews",
      "target": 34962
    },
    {
      "buffer": 0,
      "byteLength": 20664,
      "byteOffset": 12492,
      "byteStride": 12,
      "name": "floatBufferViews",
      "target": 34962
    }
  ],
  "buffers": [
    {
      "byteLength": 33156,
      "uri": "scene.bin"
    }
  ],
  "extensionsUsed": [
    "KHR_materials_specular",
    "KHR_materials_emissive_strength"
  ],
  "images": [
    {
      "uri": "textures/MaterialFBXASC032FBXASC0352142150880_baseColor.jpeg"
    },
    {
      "uri": "textures/MaterialFBXASC032FBXASC0352142150880_metallicRoughness.png"
    },
    {
      "uri": "textures/MaterialFBXASC032FBXASC0352142150880_specularf0.png"
    },
    {
      "uri": "textures/MaterialFBXASC032FBXASC0352142171025_emissive.png"
    },
    {
      "uri": "textures/MaterialFBXASC032FBXASC0352142148579_emissive.jpeg"
    },
    {
      "uri": "textures/MaterialFBXASC032FBXASC0352142148966_emissive.jpeg"
    }
  ],
  "materials": [
    {
      "doubleSided": true,
      "extensions": {
        "KHR_materials_specular": {
          "specularColorFactor": [
            1.0,
            1.0,
            1.0
          ],
          "specularFactor": 1.0,
          "specularTexture": {
            "index": 2
          }
        }
      },
      "name": "MaterialFBXASC032FBXASC0352142150880",
      "pbrMetallicRoughness": {
        "baseColorTexture": {
          "index": 0
        },
        "metallicRoughnessTexture": {
          "index": 1
        }
      }
    },
    {
      "doubleSided": true,
      "emissiveFactor": [
        1.0,
        1.0,
        1.0
      ],
      "emissiveTexture": {
        "index": 3
      },
      "extensions": {
        "KHR_materials_emissive_strength": {
          "emissiveStrength": 8.531765200351526
        }
      },
      "name": "MaterialFBXASC032FBXASC0352142171025",
      "pbrMetallicRoughness": {
        "baseColorFactor": [
          0.0,
          0.0,
          0.0,
          1.0
        ],
        "metallicFactor": 0.0
      }
    },
    {
      "doubleSided": true,
      "emissiveFactor": [
        1.0,
        1.0,
        1.0
      ],
      "emissiveTexture": {
        "index": 4
      },
      "extensions": {
        "KHR_materials_emissive_strength": {
          "emissiveStrength": 2.44489336552488
        }
      },
      "name": "MaterialFBXASC032FBXASC0352142148579",
      "pbrMetallicRoughness": {
        "baseColorFactor": [
          0.0,
          0.0,
          0.0,
          1.0
        ],
        "metallicFactor": 0.0
      }
    },
    {
      "doubleSided": true,
      "emissiveFactor": [
        1.0,
        1.0,
        1.0
      ],
      "emissiveTexture": {
        "index": 5
      },
      "extensions": {
        "KHR_materials_emissive_strength": {
          "emissiveStrength": 10.0
        }
      },
      "name": "MaterialFBXASC032FBXASC0352142148966",
      "pbrMetallicRoughness": {
        "baseColorFactor": [
          0.0,
          0.0,
          0.0,
          1.0
        ],
        "metallicFactor": 0.0
      }
    }
  ],
  "meshes": [
    {
      "name": "MaterialFBXASC032FBXASC0352142150880",
      "primitives": [
        {
          "attributes": {
            "NORMAL": 1,
            "POSITION": 0,
            "TEXCOORD_0": 2
          },
          "indices": 3,
          "material": 0,
          "mode": 4
        }
      ]
    },
    {
      "name": "MaterialFBXASC032FBXASC0352142171025",
      "primitives": [
        {
          "attributes": {
            "NORMAL": 5,
            "POSITION": 4,
            "TEXCOORD_0": 6
          },
          "indices": 7,
          "material": 1,
          "mode": 4
        }
      ]
    },
    {
      "name": "MaterialFBXASC032FBXASC0352142148579",
      "primitives": [
        {
          "attributes": {
            "NORMAL": 9,
            "POSITION": 8,
            "TEXCOORD_0": 10
          },
          "indices": 11,
          "material": 2,
          "mode": 4
        }
      ]
    },
    {
      "name": "MaterialFBXASC032FBXASC0352142148966",
      "primitives": [
        {
          "attributes": {
            "NORMAL": 13,
            "POSITION": 12,
            "TEXCOORD_0": 14
          },
          "indices": 15,
          "material": 3,
          "mode": 4
        }
      ]
    }
  ],
  "nodes": [
    {
      "children": [
        1
      ],
      "matrix": [
        1.0,
        0.0,
        0.0,
        0.0,
        0.0,
        2.220446049250313e-16,
        -1.0,
        0.0,
        0.0,
        1.0,
        2.220446049250313e-16,
        0.0,
        0.0,
        0.0,
        0.0,
        1.0
      ],
      "name": "Sketchfab_model"
    },
    {
      "children": [
        2
      ],
      "matrix": [
        1.0,
        0.0,
        0.0,
        0.0,
        0.0,
        -4.371139006309477e-08,
        0.999999999999999,
        0.0,
        0.0,
        -0.999999999999999,
        -4.371139006309477e-08,
        0.0,
        0.0,
        0.0,
        0.0,
        1.0
      ],
      "name": "Collada visual scene group"
    },
    {
      "children": [
        3,
        4,
        5,
        6
      ],
      "matrix": [
        0.737783,
        0.0,
        0.0,
        0.0,
        0.0,
        0.0,
        -0.737783,
        0.0,
        0.0,
        0.737783,
        0.0,
        0.0,
        -13.704335,
        -3.998755,
        -122.391861,
        1.0
      ],
      "name": "StandkonsoleFBXASC032135"
    },
    {
      "mesh": 0,
      "name": "MaterialFBXASC032FBXASC0352142150880"
    },
    {
      "mesh": 1,
      "name": "MaterialFBXASC032FBXASC0352142171025"
    },
    {
      "mesh": 2,
      "name": "MaterialFBXASC032FBXASC0352142148579"
    },
    {
      "mesh": 3,
      "name": "MaterialFBXASC032FBXASC0352142148966"
    }
  ],
  "samplers": [
    {
      "magFilter": 9729,
      "minFilter": 9987,
      "wrapS": 10497,
      "wrapT": 10497
    }
  ],
  "scene": 0,
  "scenes": [
    {
      "name": "Sketchfab_Scene",
      "nodes": [
        0
      ]
    }
  ],
  "textures": [
    {
      "sampler": 0,
      "source": 0
    },
    {
      "sampler": 0,
      "source": 1
    },
    {
      "sampler": 0,
      "source": 2
    },
    {
      "sampler": 0,
      "source": 3
    },
    {
      "sampler": 0,
      "source": 4
    },
    {
      "sampler": 0,
      "source": 5
    }
  ]
}
