{
  "accessors": [
    {
      "bufferView": 2,
      "componentType": 5126,
      "count": 6742,
      "max": [
        1054.449951171875,
        278.8299865722656,
        382.59100341796875
      ],
      "min": [
        258.1099853515625,
        115.21800231933594,
        2.887190103530884
      ],
      "type": "VEC3"
    },
    {
      "bufferView": 2,
      "byteOffset": 80904,
      "componentType": 5126,
      "count": 6742,
      "max": [
        0.9991739392280579,
        0.9998098611831665,
        1.0
      ],
      "min": [
        -0.9997757077217102,
        -0.9997966289520264,
        -1.0
      ],
      "type": "VEC3"
    },
    {
      "bufferView": 1,
      "componentType": 5126,
      "count": 6742,
      "max": [
        0.7283790111541748,
        0.9897980093955994
      ],
      "min": [
        0.0,
        0.0
      ],
      "type": "VEC2"
    },
    {
      "bufferView": 0,
      "componentType": 5125,
      "count": 32400,
      "type": "SCALAR"
    },
    {
      "bufferView": 2,
      "byteOffset": 161808,
      "componentType": 5126,
      "count": 6742,
      "max": [
        1023.4099731445313,
        846.3419799804688,
        379.7040100097656
      ],
      "min": [
        577.6279907226563,
        144.8769989013672,
        3.4166901059506927e-06
      ],
      "type": "VEC3"
    },
    {
      "bufferView": 2,
      "byteOffset": 242712,
      "componentType": 5126,
      "count": 6742,
      "max": [
        0.9992136359214783,
        0.9992597699165344,
        1.0
      ],
      "min": [
        -0.9993045330047607,
        -0.9991272687911987,
        -1.0
      ],
      "type": "VEC3"
    },
    {
      "bufferView": 1,
      "byteOffset": 53936,
      "componentType": 5126,
      "count": 6742,
      "max": [
        0.7283790111541748,
        0.9897980093955994
      ],
      "min": [
        0.0,
        0.0
      ],
      "type": "VEC2"
    },
    {
      "bufferView": 0,
      "byteOffset": 129600,
      "componentType": 5125,
      "count": 32400,
      "type": "SCALAR"
    },
    {
      "bufferView": 2,
      "byteOffset": 323616,
      "componentType": 5126,
      "count": 5655,
      "max": [
        1290.5400390625,
        949.302001953125,
        402.364013671875
      ],
      "min": [
        -25.635299682617188,
        1.4538099765777588,
        383.364013671875
      ],
      "type": "VEC3"
    },
    {
      "bufferView": 2,
      "byteOffset": 391476,
      "componentType": 5126,
      "count": 5655,
      "max": [
        0.9997742176055908,
        0.9999323487281799,
        1.0
      ],
      "min": [
        -0.9999544024467468,
        -0.9999987483024597,
        -1.0
      ],
      "type": "VEC3"
    },
    {
      "bufferView": 1,
      "byteOffset": 107872,
      "componentType": 5126,
      "count": 5655,
      "max": [
        0.9985349774360657,
        0.9968090057373047
      ],
      "min": [
        0.0,
        0.0
      ],
      "type": "VEC2"
    },
    {
      "bufferView": 0,
      "byteOffset": 259200,
      "componentType": 5125,
      "count": 27630,
      "type": "SCALAR"
    }
  ],
  "asset": {
    "extras": {
      "author": "3D Mädchen (https://sketchfab.com/3dmaedchen)",
      "license": "CC-BY-4.0 (http://creativecommons.org/licenses/by/4.0/)",
      "source": "https://sketchfab.com/3d-models/noguchi-coffee-table-8f8a3dbd45534152b5771c36cc4742d9",
      "title": "Noguchi Coffee Table"
    },
    "generator": "Sketchfab-12.67.0",
    "version": "2.0"
  },
  "bufferViews": [
    {
      "buffer": 0,
      "byteLength": 369720,
      "name": "floatBufferViews",
      "target": 34963
    },
    {
      "buffer": 0,
      "byteLength": 153112,
      "byteOffset": 369720,
      "byteStride": 8,
      "name": "floatBufferViews",
      "target": 34962
    },
    {
      "buffer": 0,
      "byteLength": 459336,
      "byteOffset": 522832,
      "byteStride": 12,
      "name": "floatBufferViews",
      "target": 34962
    }
  ],
  "buffers": [
    {
      "byteLength": 982168,
      "uri": "scene.bin"
    }
  ],
  "extensionsUsed": [
    "KHR_materials_clearcoat",
    "KHR_materials_transmission"
  ],
  "materials": [
    {
      "doubleSided": true,
      "name": "material",
      "pbrMetallicRoughness": {
        "metallicFactor": 0.0
      }
    },
    {
      "doubleSided": true,
      "name": "Ash_1",
      "pbrMetallicRoughness": {
        "metallicFactor": 0.0
      }
    },
    {
      "alphaMode": "BLEND",
      "doubleSided": true,
      "extensions": {
        "KHR_materials_clearcoat": {
          "clearcoatFactor": 1.0,
          "clearcoatRoughnessFactor": 0.04
        },
        "KHR_materials_transmission": {
          "transmissionFactor": 0.8462753408165002
        }
      },
      "name": "Glass_Solid_Grey",
      "pbrMetallicRoughness": {
        "baseColorFactor": [
          0.9989252575125565,
          0.9989252575125565,
          0.9989252575125565,
          0.25
        ],
        "metallicFactor": 0.0,
        "roughnessFactor": 0.4692793904826764
      }
    }
  ],
  "meshes": [
    {
      "name": "Object_0",
      "primitives": [
        {
          "attributes": {
            "NORMAL": 1,
            "POSITION": 0,
            "TEXCOORD_0": 2
          },
          "indices": 3,
          "material": 0,
          "mode": 4
        }
      ]
    },
    {
      "name": "Object_1",
      "primitives": [
        {
          "attributes": {
            "NORMAL": 5,
            "POSITION": 4,
            "TEXCOORD_0": 6
          },
          "indices": 7,
          "material": 1,
          "mode": 4
        }
      ]
    },
    {
      "name": "Object_2",
      "primitives": [
        {
          "attributes": {
            "NORMAL": 9,
            "POSITION": 8,
            "TEXCOORD_0": 10
          },
          "indices": 11,
          "material": 2,
          "mode": 4
        }
      ]
    }
  ],
  "nodes": [
    {
      "children": [
        1
      ],
      "matrix": [
        1.0,
        0.0,
        0.0,
        0.0,
        0.0,
        2.220446049250313e-16,
        -1.0,
        0.0,
        0.0,
        1.0,
        2.220446049250313e-16,
        0.0,
        0.0,
        0.0,
        0.0,
        1.0
      ],
      "name": "Sketchfab_model"
    },
    {
      "children": [
        2,
        3,
        4
      ],
      "name": "NoguchiCoffeeTable.obj.cleaner.materialmerger.gles"
    },
    {
      "mesh": 0,
      "name": "Object_2"
    },
    {
      "mesh": 1,
      "name": "Object_3"
    },
    {
      "mesh": 2,
      "name": "Object_4"
    }
  ],
  "scene": 0,
  "scenes": [
    {
      "name": "Sketchfab_Scene",
      "nodes": [
        0
      ]
    }
  ]
}
